<svg width="545" height="168" viewBox="0 0 545 168" fill="none" xmlns="http://www.w3.org/2000/svg">
<path d="M425.633 30.4248C431.827 30.4248 434.924 31.7552 434.924 34.416C434.924 35.681 431.522 46.3242 424.717 66.3457C417.913 86.3672 413.921 97.5557 412.744 99.9111C404.936 115.178 397.215 122.812 389.582 122.812C385.656 122.812 382.581 121.917 380.356 120.129C379.702 119.605 379.375 118.951 379.375 118.166C379.375 115.767 380.378 113.782 382.384 112.212C382.646 111.994 384.5 111.405 387.946 110.445C395.099 108.439 398.676 103.75 398.676 96.3779C398.676 94.4587 396.779 90.3148 392.984 83.9463C389.189 77.5778 386.31 72.1471 384.347 67.6543C376.19 48.9414 372.112 38.6908 372.112 36.9023C372.112 35.0703 372.941 33.7399 374.598 32.9111C376.299 32.0824 379.2 31.668 383.3 31.668C387.444 31.668 390.41 33.151 392.199 36.1172C393.028 37.513 393.66 40.0866 394.096 43.8379C394.576 47.5892 395.427 51.515 396.648 55.6152C400.53 68.7448 403.235 75.3096 404.761 75.3096C406.855 75.3096 409.298 71.1439 412.089 62.8125C414.925 54.4811 416.582 46.804 417.062 39.7812C417.236 37.0332 417.629 35.1139 418.24 34.0234C419.592 31.6243 422.056 30.4248 425.633 30.4248Z" fill="white"/>
<path d="M357.547 96.5742H352.574C348.954 96.5742 346.38 95.9199 344.854 94.6113C343.327 93.3027 342.563 91.3398 342.563 88.7227C342.563 88.0684 342.76 86.738 343.152 84.7314L343.61 82.7031C344.744 77.7305 345.312 73.8265 345.312 70.9912V65.4951L345.377 63.0088V54.1104L345.442 50.3154V43.9688C345.442 27.6549 345.377 18.7783 345.246 17.3389C345.115 15.8558 344.483 13.7402 343.349 10.9922C342.215 8.20052 341.647 6.49935 341.647 5.88867V4.77637C341.647 2.90072 342.563 1.63574 344.396 0.981445C346.271 0.327148 349.412 0 353.817 0C358.267 0 360.862 1.63574 361.604 4.90723C361.691 5.2998 361.734 10.6214 361.734 20.8721L361.669 22.1807C361.669 23.0094 361.669 23.8382 361.669 24.667L361.604 28.5273V34.8086L361.538 37.2949C361.538 57.8835 361.734 69.6172 362.127 72.4961C362.563 75.375 363.697 78.9736 365.529 83.292C367.405 87.5667 368.343 89.7913 368.343 89.9658C368.343 94.3714 364.744 96.5742 357.547 96.5742Z" fill="white"/>
<path d="M318.643 53.2598V52.8672L318.577 52.4746V51.7549C318.49 51.2314 318.446 50.8607 318.446 50.6426C318.446 48.1126 317.312 45.8662 315.044 43.9033C312.776 41.8968 310.311 40.8936 307.65 40.8936H305.688C302.023 40.8936 298.948 42.3112 296.462 45.1465C293.976 47.9818 292.732 51.1442 292.732 54.6338V55.6807C292.732 56.9893 293.583 57.6436 295.284 57.6436L296.92 57.8398H301.042L301.369 57.7744L313.343 57.1201L314.717 56.9893C317.334 56.9893 318.643 55.7461 318.643 53.2598ZM330.158 65.168C326.538 66.6074 319.471 67.3271 308.959 67.3271C298.49 67.3271 293.256 68.8975 293.256 72.0381C293.256 76.182 294.848 79.4316 298.032 81.7871C301.216 84.1426 305.753 85.3203 311.642 85.3203C313.91 85.3203 316.789 84.7533 320.278 83.6191C323.768 82.485 326.494 81.918 328.457 81.918C330.856 81.918 332.056 83.8372 332.056 87.6758C332.056 90.1185 329.417 92.4521 324.139 94.6768C318.904 96.9014 313.823 98.0137 308.894 98.0137H307.389C302.023 98.0137 297.291 97.2067 293.19 95.5928C289.134 93.9352 285.906 91.8633 283.507 89.377C281.108 86.8906 279.123 83.5755 277.553 79.4316C276.026 75.2878 275.263 70.6859 275.263 65.626V64.0557C275.263 53.7614 277.858 45.6481 283.049 39.7158C285.797 36.5752 289.221 34.1761 293.321 32.5186C297.422 30.8174 301.74 29.9668 306.276 29.9668H309.352C312.449 29.9668 315.676 30.5775 319.035 31.7988C325.535 34.1543 330.049 38.778 332.579 45.6699C333.844 49.1159 334.477 52.3656 334.477 55.4189V56.8584C334.477 61.264 333.037 64.0339 330.158 65.168Z" fill="white"/>
<path d="M221.571 95.2656C218.387 95.2656 216.162 94.6986 214.897 93.5645C213.632 92.4303 213 90.4674 213 87.6758C213 86.9779 213.218 85.5384 213.654 83.3574C214.483 79.2135 214.897 74.3936 214.897 68.8975V52.54L214.963 45.8662V27.0225C214.963 21.0902 214.832 17.4915 214.57 16.2266C214.352 14.9616 213.916 13.1296 213.262 10.7305C212.607 8.28776 212.28 6.8265 212.28 6.34668V4.51465C212.28 3.51139 213.044 2.52995 214.57 1.57031C216.141 0.567057 219.281 0.0654297 223.992 0.0654297C227.395 0.0654297 229.554 1.30859 230.47 3.79492C231.386 6.23763 231.844 13.2604 231.844 24.8633C231.844 36.4661 231.975 43.4671 232.236 45.8662C232.673 49.7048 233.785 51.624 235.573 51.624C237.1 51.624 240.11 49.0068 244.603 43.7725C245.693 42.5075 247.023 40.7191 248.594 38.4072C250.164 36.0518 251.713 34.3288 253.239 33.2383C254.766 32.1478 257.252 31.6025 260.698 31.6025C266.674 31.6025 269.662 32.7148 269.662 34.9395C269.662 37.1204 266.631 41.1771 260.567 47.1094C254.504 53.0417 251.473 57.3382 251.473 59.999C251.473 61.0023 255.268 66.5638 262.857 76.6836C270.447 86.8034 274.242 92.3867 274.242 93.4336C274.242 95.1348 272.606 95.9854 269.335 95.9854H267.307C261.025 95.9854 256.642 94.7422 254.155 92.2559C253.152 91.2526 251.691 88.8317 249.771 84.9932C247.852 81.1546 245.606 77.5124 243.032 74.0664C240.459 70.5768 238.256 68.832 236.424 68.832C235.857 68.832 235.072 69.5736 234.068 71.0566C233.109 72.4961 232.629 75.0915 232.629 78.8428L233.479 87.9375C233.479 92.8229 229.51 95.2656 221.571 95.2656Z" fill="white"/>
<path d="M191.042 2.68262H192.023C197.912 2.68262 200.856 5.03809 200.856 9.74902V12.2354C200.725 12.8896 200.66 13.6966 200.66 14.6562C200.66 15.6159 199.984 16.7718 198.631 18.124C197.323 19.4326 195.643 20.0869 193.593 20.0869L191.696 20.2832H189.864C187.421 20.2832 185.524 19.7161 184.171 18.582C182.819 17.4043 182.143 15.834 182.143 13.8711C182.056 13.5221 182.012 13.2168 182.012 12.9551L181.947 11.7119L182.012 11.3848C182.012 11.1667 182.012 10.9486 182.012 10.7305L182.143 9.4873C182.143 7.48079 182.885 5.84505 184.368 4.58008C185.851 3.3151 188.075 2.68262 191.042 2.68262ZM187.443 96.5742C182.208 96.5306 179.591 94.5023 179.591 90.4893C179.591 88.57 180.006 86.4326 180.834 84.0771C181.707 81.7217 182.318 79.6279 182.667 77.7959C183.059 75.9639 183.255 70.6204 183.255 61.7656C183.255 52.8672 183.103 47.8727 182.797 46.7822C182.536 45.6481 181.838 44.0996 180.704 42.1367C179.569 40.1738 179.002 38.6689 179.002 37.6221V36.8369C179.002 34.6995 179.7 33.3037 181.096 32.6494C182.492 31.9515 184.869 31.6025 188.228 31.6025L190.976 31.4062H193.659C196.843 31.4062 198.697 32.693 199.22 35.2666C199.395 36.0954 199.482 39.7812 199.482 46.3242V60.3262L199.547 63.0742V67.7197L199.678 70.4023C199.722 71.013 199.744 72.0599 199.744 73.543C199.744 74.9824 200.485 77.6432 201.968 81.5254C203.451 85.4076 204.193 87.9811 204.193 89.2461V89.9658C204.193 94.3714 200.42 96.5742 192.874 96.5742H187.443Z" fill="white"/>
<path d="M160.578 96.5742H155.605C151.985 96.5742 149.411 95.9199 147.884 94.6113C146.358 93.3027 145.594 91.3398 145.594 88.7227C145.594 88.0684 145.791 86.738 146.183 84.7314L146.641 82.7031C147.775 77.7305 148.342 73.8265 148.342 70.9912V65.4951L148.408 63.0088V54.1104L148.473 50.3154V43.9688C148.473 27.6549 148.408 18.7783 148.277 17.3389C148.146 15.8558 147.514 13.7402 146.379 10.9922C145.245 8.20052 144.678 6.49935 144.678 5.88867V4.77637C144.678 2.90072 145.594 1.63574 147.426 0.981445C149.302 0.327148 152.443 0 156.848 0C161.297 0 163.893 1.63574 164.634 4.90723C164.722 5.2998 164.765 10.6214 164.765 20.8721L164.7 22.1807C164.7 23.0094 164.7 23.8382 164.7 24.667L164.634 28.5273V34.8086L164.569 37.2949C164.569 57.8835 164.765 69.6172 165.158 72.4961C165.594 75.375 166.728 78.9736 168.56 83.292C170.436 87.5667 171.374 89.7913 171.374 89.9658C171.374 94.3714 167.775 96.5742 160.578 96.5742Z" fill="white"/>
<path d="M89.0234 34.5469C91.248 35.9863 92.9056 36.7061 93.9961 36.7061C95.0866 36.7061 97.682 35.8337 101.782 34.0889C105.926 32.3005 109.786 31.4062 113.363 31.4062C120.168 31.4062 125.359 33.8708 128.936 38.7998C131.727 42.7256 133.123 50.2718 133.123 61.4385L133.254 65.2334L133.319 70.8604C133.319 74.8298 133.581 77.7305 134.104 79.5625L135.806 83.8154C136.46 85.6475 136.787 87.2178 136.787 88.5264C136.787 91.5798 135.958 93.499 134.301 94.2842C132.643 95.0693 130.004 95.4619 126.384 95.4619C122.763 95.4619 120.146 94.8949 118.532 93.7607C116.918 92.583 116.111 90.2057 116.111 86.6289C116.111 86.2799 116.22 84.5788 116.438 81.5254C116.7 78.472 116.831 75.0479 116.831 71.2529C116.831 59.999 115.959 52.3874 114.214 48.418C112.469 44.4049 109.198 42.3984 104.399 42.3984C99.6449 42.3984 96.0898 44.5358 93.7344 48.8105C92.2949 51.3841 91.5752 56.6403 91.5752 64.5791C91.5752 72.4743 91.7715 77.9922 92.1641 81.1328C92.5566 84.3171 92.7529 86.9997 92.7529 89.1807C92.7529 93.5426 89.2852 95.7236 82.3496 95.7236H80.583C77.486 95.7236 75.2614 95.3092 73.9092 94.4805C72.6006 93.6081 71.9463 92.0378 71.9463 89.7695V88.0684C71.9463 87.2832 72.3825 85.5384 73.2549 82.834C74.1273 80.0859 74.6289 77.4906 74.7598 75.0479C74.8906 72.5615 74.9561 67.349 74.9561 59.4102C74.9561 51.4714 74.8906 46.9131 74.7598 45.7354C74.6289 44.514 74.2799 42.9219 73.7129 40.959C73.1458 38.9525 72.8623 37.2949 72.8623 35.9863C72.8623 33.5872 75.763 32.3877 81.5645 32.3877C84.3561 32.3877 86.8424 33.1074 89.0234 34.5469Z" fill="white"/>
<path d="M63.9902 89.5732C63.9902 93.4554 60.457 95.3965 53.3906 95.3965C51.2533 95.3965 49.0505 94.8076 46.7822 93.6299C44.514 92.4085 43.1182 91.7979 42.5947 91.7979L35.6592 94.4805C31.9515 95.9199 28.5928 96.6396 25.583 96.6396H23.8164C20.1087 96.6396 16.7282 95.8327 13.6748 94.2188C10.6214 92.5612 8.28776 90.2712 6.67383 87.3486C4.31836 83.1175 3.14062 73.5648 3.14062 58.6904C3.14062 51.973 3.03158 47.96 2.81348 46.6514C2.59538 45.3428 2.07194 43.5762 1.24316 41.3516C0.414388 39.127 0 37.2295 0 35.6592C0 34.0889 0.610677 32.9329 1.83203 32.1914C3.05339 31.4499 5.16895 31.0791 8.17871 31.0791H9.94531C14.3073 31.0791 17.099 32.5622 18.3203 35.5283C19.0618 37.3167 19.4326 44.4049 19.4326 56.793C19.4326 69.181 20.1087 76.8145 21.4609 79.6934C23.1621 83.3574 26.2591 85.1895 30.752 85.1895C33.0638 85.1895 35.2666 84.6006 37.3604 83.4229C39.4977 82.2451 41.068 80.6748 42.0713 78.7119C43.6852 75.6149 44.4922 69.2464 44.4922 59.6064C44.4922 55.1572 44.2087 50.9479 43.6416 46.9785C43.0745 43.0091 42.791 40.2174 42.791 38.6035C42.791 33.8053 46.6077 31.4062 54.2412 31.4062C57.9925 31.4062 60.1735 32.8457 60.7842 35.7246C60.9587 36.5534 61.0459 42.7038 61.0459 54.1758C61.0459 65.6478 61.3512 73.2376 61.9619 76.9453C62.5726 80.653 63.0524 83.3356 63.4014 84.9932C63.7939 86.6071 63.9902 87.654 63.9902 88.1338V89.5732Z" fill="white"/>
<path fill-rule="evenodd" clip-rule="evenodd" d="M495.007 120H495C494.902 120 494.804 120 494.706 119.999C486.605 119.948 479 117.803 472.407 114.079C485.393 110.781 495 99.0123 495 85C495 68.4315 481.569 55 465 55C460.283 55 455.819 56.0888 451.848 58.0289C458.34 40.4966 475.21 28 495 28C520.405 28 541 48.5949 541 74C541 99.4027 520.409 119.996 495.007 120ZM495 124C494.896 124 494.792 124 494.688 123.999L168 123L168.012 119L475.23 119.94C472.084 118.584 469.105 116.915 466.333 114.971C465.891 114.99 465.447 115 465 115C464.971 115 464.942 115 464.913 115C464.878 115 464.842 115 464.807 114.999L147 114L147.013 110L449.942 110.953C441.007 105.757 435 96.0801 435 85C435 75.3509 439.555 66.7658 446.633 61.278C452.26 39.8254 471.782 24 495 24C522.614 24 545 46.3858 545 74C545 101.614 522.614 124 495 124ZM461.043 110.701C448.562 108.795 439 98.0141 439 85C439 78.482 441.398 72.5241 445.361 67.9609C445.123 69.9407 445 71.956 445 74C445 88.5051 451.177 101.568 461.043 110.701ZM467.504 110.881C456.272 102.494 449 89.096 449 74C449 70.4378 449.405 66.9701 450.171 63.6405C454.377 60.715 459.488 59 465 59C479.359 59 491 70.6406 491 85C491 98.5148 480.688 109.621 467.504 110.881ZM503 164C511.837 164 519 156.837 519 148C519 139.163 511.837 132 503 132C494.163 132 487 139.163 487 148C487 156.837 494.163 164 503 164ZM490.998 132C486.141 135.649 483 141.458 483 148C483 159.046 491.954 168 503 168C514.046 168 523 159.046 523 148C523 137.29 514.581 128.546 504 128.025V128H503H179V132H490.998Z" fill="white"/>
</svg>
